<svg xmlns="http://www.w3.org/2000/svg" xmlns:xlink="http://www.w3.org/1999/xlink" contentStyleType="text/css" data-diagram-type="ACTIVITY" height="2297px" preserveAspectRatio="none" style="width:1013px;height:2297px;background:#FFFFFF;" version="1.1" viewBox="0 0 1013 2297" width="1013px" zoomAndPan="magnify"><title>NexusLink Linking Process: pkg.nlink &amp; nlink.txt Architecture</title><defs/><g><g class="title" data-source-line="1"><text fill="#000000" font-family="sans-serif" font-size="14" font-weight="bold" lengthAdjust="spacing" textLength="486.0557" x="262.4563" y="32.9951">NexusLink Linking Process: pkg.nlink &amp; nlink.txt Architecture</text></g><ellipse cx="500.2522" cy="57.2969" fill="#222222" rx="10" ry="10" style="stroke:#222222;stroke-width:1;"/><rect fill="#F1F1F1" height="33.9688" rx="12.5" ry="12.5" style="stroke:#181818;stroke-width:0.5;" width="135.0723" x="432.7161" y="87.2969"/><text fill="#000000" font-family="sans-serif" font-size="12" lengthAdjust="spacing" textLength="115.0723" x="442.7161" y="108.4355">Scan root directory</text><rect fill="#F1F1F1" height="33.9688" rx="12.5" ry="12.5" style="stroke:#181818;stroke-width:0.5;" width="168.1602" x="416.1721" y="141.2656"/><text fill="#000000" font-family="sans-serif" font-size="12" lengthAdjust="spacing" textLength="148.1602" x="426.1721" y="162.4043">Parse pkg.nlink manifest</text><polygon fill="#F1F1F1" points="457.2834,195.2344,543.2209,195.2344,555.2209,207.2344,543.2209,219.2344,457.2834,219.2344,445.2834,207.2344,457.2834,195.2344" style="stroke:#181818;stroke-width:0.5;"/><text fill="#000000" font-family="sans-serif" font-size="11" lengthAdjust="spacing" textLength="85.9375" x="457.2834" y="211.0425">pkg.nlink valid?</text><text fill="#000000" font-family="sans-serif" font-size="11" lengthAdjust="spacing" textLength="13.7017" x="431.5818" y="204.6401">no</text><text fill="#000000" font-family="sans-serif" font-size="11" lengthAdjust="spacing" textLength="19.0083" x="555.2209" y="204.6401">yes</text><rect fill="#F1F1F1" height="33.9688" rx="12.5" ry="12.5" style="stroke:#181818;stroke-width:0.5;" width="180.4531" x="310.8889" y="229.2344"/><text fill="#000000" font-family="sans-serif" font-size="12" lengthAdjust="spacing" textLength="160.4531" x="320.8889" y="250.373">Error: Malformed pkg.nlink</text><ellipse cx="401.1155" cy="294.2031" fill="none" rx="11" ry="11" style="stroke:#222222;stroke-width:1;"/><ellipse cx="401.1155" cy="294.2031" fill="#222222" rx="6" ry="6" style="stroke:#222222;stroke-width:1;"/><rect fill="#F1F1F1" height="33.9688" rx="12.5" ry="12.5" style="stroke:#181818;stroke-width:0.5;" width="173.8906" x="512.4436" y="229.2344"/><text fill="#000000" font-family="sans-serif" font-size="12" lengthAdjust="spacing" textLength="153.8906" x="522.4436" y="250.373">Extract global constraints</text><rect fill="#F1F1F1" height="33.9688" rx="12.5" ry="12.5" style="stroke:#181818;stroke-width:0.5;" width="176.0938" x="511.342" y="283.2031"/><text fill="#000000" font-family="sans-serif" font-size="12" lengthAdjust="spacing" textLength="156.0938" x="521.342" y="304.3418">Configure threading pools</text><rect fill="#F1F1F1" height="33.9688" rx="12.5" ry="12.5" style="stroke:#181818;stroke-width:0.5;" width="163.2383" x="517.7698" y="337.1719"/><text fill="#000000" font-family="sans-serif" font-size="12" lengthAdjust="spacing" textLength="143.2383" x="527.7698" y="358.3105">Set entry point (main.c)</text><rect fill="#F1F1F1" height="33.9688" rx="12.5" ry="12.5" style="stroke:#181818;stroke-width:0.5;" width="172.2383" x="414.1331" y="391.1406"/><text fill="#000000" font-family="sans-serif" font-size="12" lengthAdjust="spacing" textLength="152.2383" x="424.1331" y="412.2793">Count component folders</text><polygon fill="#F1F1F1" points="429.8479,445.1094,570.6565,445.1094,582.6565,457.1094,570.6565,469.1094,429.8479,469.1094,417.8479,457.1094,429.8479,445.1094" style="stroke:#181818;stroke-width:0.5;"/><text fill="#000000" font-family="sans-serif" font-size="11" lengthAdjust="spacing" textLength="140.8086" x="429.8479" y="460.9175">Single component folder?</text><text fill="#000000" font-family="sans-serif" font-size="11" lengthAdjust="spacing" textLength="19.0083" x="398.8396" y="454.5151">yes</text><text fill="#000000" font-family="sans-serif" font-size="11" lengthAdjust="spacing" textLength="13.7017" x="582.6565" y="454.5151">no</text><rect fill="#F1F1F1" height="33.9688" rx="12.5" ry="12.5" style="stroke:#181818;stroke-width:0.5;" width="185.6445" x="146.2412" y="479.1094"/><text fill="#000000" font-family="sans-serif" font-size="12" lengthAdjust="spacing" textLength="165.6445" x="156.2412" y="500.248">Single-Pass Mode Activated</text><rect fill="#F1F1F1" height="33.9688" rx="12.5" ry="12.5" style="stroke:#181818;stroke-width:0.5;" width="172.4551" x="152.8359" y="533.0781"/><text fill="#000000" font-family="sans-serif" font-size="12" lengthAdjust="spacing" textLength="152.4551" x="162.8359" y="554.2168">Ignore nlink.txt if present</text><rect fill="none" height="333.1406" style="stroke:#000000;stroke-width:1.5;" width="140.8115" x="168.6577" y="602.0469"/><path d="M299.4692,602.0469 L299.4692,611.3438 L289.4692,621.3438 L168.6577,621.3438" fill="none" style="stroke:#000000;stroke-width:1.5;"/><text fill="#000000" font-family="sans-serif" font-size="14" lengthAdjust="spacing" textLength="120.8115" x="171.6577" y="616.042">Linear DFA Chain</text><rect fill="#F1F1F1" height="33.9688" rx="12.5" ry="12.5" style="stroke:#181818;stroke-width:0.5;" width="88.8828" x="194.6221" y="638.3438"/><text fill="#000000" font-family="sans-serif" font-size="12" lengthAdjust="spacing" textLength="68.8828" x="204.6221" y="659.4824">TOKENIZER</text><rect fill="#F1F1F1" height="33.9688" rx="12.5" ry="12.5" style="stroke:#181818;stroke-width:0.5;" width="30.0547" x="224.0361" y="700.5781"/><text fill="#000000" font-family="sans-serif" font-size="12" lengthAdjust="spacing" textLength="10.0547" x="234.0361" y="721.7168">&#8595;</text><rect fill="#F1F1F1" height="33.9688" rx="12.5" ry="12.5" style="stroke:#181818;stroke-width:0.5;" width="67.3203" x="205.4033" y="762.8125"/><text fill="#000000" font-family="sans-serif" font-size="12" lengthAdjust="spacing" textLength="47.3203" x="215.4033" y="783.9512">PARSER</text><rect fill="#F1F1F1" height="33.9688" rx="12.5" ry="12.5" style="stroke:#181818;stroke-width:0.5;" width="30.0547" x="224.0361" y="822.0156"/><text fill="#000000" font-family="sans-serif" font-size="12" lengthAdjust="spacing" textLength="10.0547" x="234.0361" y="843.1543">&#8595;</text><rect fill="#F1F1F1" height="33.9688" rx="12.5" ry="12.5" style="stroke:#181818;stroke-width:0.5;" width="43.1563" x="217.4854" y="881.2188"/><text fill="#000000" font-family="sans-serif" font-size="12" lengthAdjust="spacing" textLength="23.1563" x="227.4854" y="902.3574">AST</text><rect fill="none" height="215.6719" style="stroke:#000000;stroke-width:1.5;" width="458.127" x="11" y="964.6875"/><path d="M179.0332,964.6875 L179.0332,973.9844 L169.0332,983.9844 L11,983.9844" fill="none" style="stroke:#000000;stroke-width:1.5;"/><text fill="#000000" font-family="sans-serif" font-size="14" lengthAdjust="spacing" textLength="158.0332" x="14" y="978.6826">Concurrent Processing</text><rect fill="#555555" height="6" rx="2.5" ry="2.5" style="stroke:#555555;stroke-width:1;" width="438.127" x="21" y="1000.9844"/><rect fill="#F1F1F1" height="47.9375" rx="12.5" ry="12.5" style="stroke:#181818;stroke-width:0.5;" width="178.3965" x="33" y="1026.9844"/><text fill="#000000" font-family="sans-serif" font-size="12" lengthAdjust="spacing" textLength="158.3965" x="43" y="1048.123">Phase 1: AST Minimization</text><text fill="#000000" font-family="sans-serif" font-size="12" lengthAdjust="spacing" textLength="114.9141" x="43" y="1062.0918">(okpala_minimizer)</text><rect fill="#F1F1F1" height="47.9375" rx="12.5" ry="12.5" style="stroke:#181818;stroke-width:0.5;" width="205.7305" x="239.3965" y="1026.9844"/><text fill="#000000" font-family="sans-serif" font-size="12" lengthAdjust="spacing" textLength="185.7305" x="249.3965" y="1048.123">Phase 2: Isomorphic Reduction</text><text fill="#000000" font-family="sans-serif" font-size="12" lengthAdjust="spacing" textLength="144.0703" x="249.3965" y="1062.0918">(Unicode normalization)</text><rect fill="#555555" height="6" rx="2.5" ry="2.5" style="stroke:#555555;stroke-width:1;" width="438.127" x="21" y="1094.9219"/><rect fill="#F1F1F1" height="33.9688" rx="12.5" ry="12.5" style="stroke:#181818;stroke-width:0.5;" width="205.3555" x="136.3857" y="1126.3906"/><text fill="#000000" font-family="sans-serif" font-size="12" lengthAdjust="spacing" textLength="185.3555" x="146.3857" y="1147.5293">Thread synchronization barrier</text><rect fill="#F1F1F1" height="33.9688" rx="12.5" ry="12.5" style="stroke:#181818;stroke-width:0.5;" width="175.291" x="673.7954" y="479.1094"/><text fill="#000000" font-family="sans-serif" font-size="12" lengthAdjust="spacing" textLength="155.291" x="683.7954" y="500.248">Multi-Pass Mode Required</text><polygon fill="#F1F1F1" points="718.1902,533.0781,804.6917,533.0781,816.6917,545.0781,804.6917,557.0781,718.1902,557.0781,706.1902,545.0781,718.1902,533.0781" style="stroke:#181818;stroke-width:0.5;"/><text fill="#000000" font-family="sans-serif" font-size="11" lengthAdjust="spacing" textLength="86.5015" x="718.1902" y="548.8862">nlink.txt exists?</text><text fill="#000000" font-family="sans-serif" font-size="11" lengthAdjust="spacing" textLength="13.7017" x="692.4885" y="542.4839">no</text><text fill="#000000" font-family="sans-serif" font-size="11" lengthAdjust="spacing" textLength="19.0083" x="816.6917" y="542.4839">yes</text><rect fill="#F1F1F1" height="33.9688" rx="12.5" ry="12.5" style="stroke:#181818;stroke-width:0.5;" width="265.3555" x="499.127" y="567.0781"/><text fill="#000000" font-family="sans-serif" font-size="12" lengthAdjust="spacing" textLength="245.3555" x="509.127" y="588.2168">Error: Multi-component requires nlink.txt</text><ellipse cx="631.8047" cy="647.0469" fill="none" rx="11" ry="11" style="stroke:#222222;stroke-width:1;"/><ellipse cx="631.8047" cy="647.0469" fill="#222222" rx="6" ry="6" style="stroke:#222222;stroke-width:1;"/><rect fill="#F1F1F1" height="33.9688" rx="12.5" ry="12.5" style="stroke:#181818;stroke-width:0.5;" width="213.1895" x="784.4824" y="567.0781"/><text fill="#000000" font-family="sans-serif" font-size="12" lengthAdjust="spacing" textLength="193.1895" x="794.4824" y="588.2168">Parse root nlink.txt coordination</text><rect fill="#F1F1F1" height="33.9688" rx="12.5" ry="12.5" style="stroke:#181818;stroke-width:0.5;" width="198.0781" x="662.4019" y="692.3125"/><text fill="#000000" font-family="sans-serif" font-size="12" lengthAdjust="spacing" textLength="178.0781" x="672.4019" y="713.4512">Iterate subcomponent folders</text><rect fill="#F1F1F1" height="33.9688" rx="12.5" ry="12.5" style="stroke:#181818;stroke-width:0.5;" width="126.1191" x="698.3813" y="816.7813"/><text fill="#000000" font-family="sans-serif" font-size="12" lengthAdjust="spacing" textLength="106.1191" x="708.3813" y="837.9199">Process subfolder</text><polygon fill="#F1F1F1" points="690.0081,875.9844,832.8738,875.9844,844.8738,887.9844,832.8738,899.9844,690.0081,899.9844,678.0081,887.9844,690.0081,875.9844" style="stroke:#181818;stroke-width:0.5;"/><text fill="#000000" font-family="sans-serif" font-size="11" lengthAdjust="spacing" textLength="142.8657" x="690.0081" y="891.7925">Subfolder nlink.txt exists?</text><text fill="#000000" font-family="sans-serif" font-size="11" lengthAdjust="spacing" textLength="19.0083" x="658.9998" y="885.3901">yes</text><text fill="#000000" font-family="sans-serif" font-size="11" lengthAdjust="spacing" textLength="13.7017" x="844.8738" y="885.3901">no</text><rect fill="#F1F1F1" height="33.9688" rx="12.5" ry="12.5" style="stroke:#181818;stroke-width:0.5;" width="185.6504" x="562.8315" y="909.9844"/><text fill="#000000" font-family="sans-serif" font-size="12" lengthAdjust="spacing" textLength="165.6504" x="572.8315" y="931.123">Parse isolated symbol table</text><rect fill="#F1F1F1" height="33.9688" rx="12.5" ry="12.5" style="stroke:#181818;stroke-width:0.5;" width="179.5859" x="565.8638" y="973.4531"/><text fill="#000000" font-family="sans-serif" font-size="12" lengthAdjust="spacing" textLength="159.5859" x="575.8638" y="994.5918">Resolve versioned imports</text><rect fill="#F1F1F1" height="33.9688" rx="12.5" ry="12.5" style="stroke:#181818;stroke-width:0.5;" width="197.4863" x="768.4819" y="909.9844"/><text fill="#000000" font-family="sans-serif" font-size="12" lengthAdjust="spacing" textLength="177.4863" x="778.4819" y="931.123">Use default linkage sequence</text><polygon fill="#F1F1F1" points="761.4409,1013.4219,773.4409,1025.4219,761.4409,1037.4219,749.4409,1025.4219,761.4409,1013.4219" style="stroke:#181818;stroke-width:0.5;"/><rect fill="#F1F1F1" height="33.9688" rx="12.5" ry="12.5" style="stroke:#181818;stroke-width:0.5;" width="273.4121" x="624.7349" y="1072.4219"/><text fill="#000000" font-family="sans-serif" font-size="12" lengthAdjust="spacing" textLength="253.4121" x="634.7349" y="1093.5605">Execute DFA minimization per component</text><polygon fill="#F1F1F1" points="761.4409,754.5469,773.4409,766.5469,761.4409,778.5469,749.4409,766.5469,761.4409,754.5469" style="stroke:#181818;stroke-width:0.5;"/><polygon fill="#F1F1F1" points="699.1953,1144.8594,823.6865,1144.8594,835.6865,1156.8594,823.6865,1168.8594,699.1953,1168.8594,687.1953,1156.8594,699.1953,1144.8594" style="stroke:#181818;stroke-width:0.5;"/><text fill="#000000" font-family="sans-serif" font-size="11" lengthAdjust="spacing" textLength="124.4912" x="699.1953" y="1160.6675">More subcomponents?</text><rect fill="#F1F1F1" height="33.9688" rx="12.5" ry="12.5" style="stroke:#181818;stroke-width:0.5;" width="203.7031" x="659.5894" y="1200.3594"/><text fill="#000000" font-family="sans-serif" font-size="12" lengthAdjust="spacing" textLength="183.7031" x="669.5894" y="1221.498">Coordinate multi-pass pipeline</text><polygon fill="#F1F1F1" points="500.2522,1240.3281,512.2522,1252.3281,500.2522,1264.3281,488.2522,1252.3281,500.2522,1240.3281" style="stroke:#181818;stroke-width:0.5;"/><rect fill="none" height="372.1719" style="stroke:#000000;stroke-width:1.5;" width="719.2773" x="63.8828" y="1274.3281"/><path d="M259.4648,1274.3281 L259.4648,1283.625 L249.4648,1293.625 L63.8828,1293.625" fill="none" style="stroke:#000000;stroke-width:1.5;"/><text fill="#000000" font-family="sans-serif" font-size="14" lengthAdjust="spacing" textLength="185.582" x="66.8828" y="1288.3232">Feature Toggle Processing</text><polygon fill="#F1F1F1" points="442.7224,1310.625,557.782,1310.625,569.782,1322.625,557.782,1334.625,442.7224,1334.625,430.7224,1322.625,442.7224,1310.625" style="stroke:#181818;stroke-width:0.5;"/><text fill="#000000" font-family="sans-serif" font-size="11" lengthAdjust="spacing" textLength="115.0596" x="442.7224" y="1326.4331">Feature flags active?</text><text fill="#000000" font-family="sans-serif" font-size="11" lengthAdjust="spacing" textLength="19.0083" x="411.7141" y="1320.0308">yes</text><text fill="#000000" font-family="sans-serif" font-size="11" lengthAdjust="spacing" textLength="13.7017" x="569.782" y="1320.0308">no</text><polygon fill="#F1F1F1" points="254.2188,1344.625,404.8779,1344.625,416.8779,1356.625,404.8779,1368.625,254.2188,1368.625,242.2188,1356.625,254.2188,1344.625" style="stroke:#181818;stroke-width:0.5;"/><text fill="#000000" font-family="sans-serif" font-size="11" lengthAdjust="spacing" textLength="150.6592" x="254.2188" y="1360.4331">Type-1 grammar detected?</text><text fill="#000000" font-family="sans-serif" font-size="11" lengthAdjust="spacing" textLength="19.0083" x="223.2104" y="1354.0308">yes</text><text fill="#000000" font-family="sans-serif" font-size="11" lengthAdjust="spacing" textLength="13.7017" x="416.8779" y="1354.0308">no</text><rect fill="#F1F1F1" height="33.9688" rx="12.5" ry="12.5" style="stroke:#181818;stroke-width:0.5;" width="200.0469" x="110.8076" y="1378.625"/><text fill="#000000" font-family="sans-serif" font-size="12" lengthAdjust="spacing" textLength="180.0469" x="120.8076" y="1399.7637">Activate --experimental-mode</text><rect fill="#F1F1F1" height="33.9688" rx="12.5" ry="12.5" style="stroke:#181818;stroke-width:0.5;" width="174.1191" x="123.7715" y="1432.5938"/><text fill="#000000" font-family="sans-serif" font-size="12" lengthAdjust="spacing" textLength="154.1191" x="133.7715" y="1453.7324">Disable DFA minimization</text><rect fill="#F1F1F1" height="33.9688" rx="12.5" ry="12.5" style="stroke:#181818;stroke-width:0.5;" width="159.9453" x="130.8584" y="1486.5625"/><text fill="#000000" font-family="sans-serif" font-size="12" lengthAdjust="spacing" textLength="139.9453" x="140.8584" y="1507.7012">Enable arbitration logic</text><rect fill="#F1F1F1" height="33.9688" rx="12.5" ry="12.5" style="stroke:#181818;stroke-width:0.5;" width="233.8965" x="93.8828" y="1540.5313"/><text fill="#000000" font-family="sans-serif" font-size="12" lengthAdjust="spacing" textLength="213.8965" x="103.8828" y="1561.6699">Serialize execution for determinism</text><rect fill="#F1F1F1" height="33.9688" rx="12.5" ry="12.5" style="stroke:#181818;stroke-width:0.5;" width="200.9727" x="347.7793" y="1378.625"/><text fill="#000000" font-family="sans-serif" font-size="12" lengthAdjust="spacing" textLength="180.9727" x="357.7793" y="1399.7637">Maintain parallel worker pools</text><rect fill="#F1F1F1" height="33.9688" rx="12.5" ry="12.5" style="stroke:#181818;stroke-width:0.5;" width="173.5742" x="361.4785" y="1432.5938"/><text fill="#000000" font-family="sans-serif" font-size="12" lengthAdjust="spacing" textLength="153.5742" x="371.4785" y="1453.7324">Enforce DFA determinism</text><polygon fill="#F1F1F1" points="329.5483,1580.5,341.5483,1592.5,329.5483,1604.5,317.5483,1592.5,329.5483,1580.5" style="stroke:#181818;stroke-width:0.5;"/><rect fill="#F1F1F1" height="33.9688" rx="12.5" ry="12.5" style="stroke:#181818;stroke-width:0.5;" width="184.4082" x="578.752" y="1344.625"/><text fill="#000000" font-family="sans-serif" font-size="12" lengthAdjust="spacing" textLength="164.4082" x="588.752" y="1365.7637">Standard DFA minimization</text><polygon fill="#F1F1F1" points="500.2522,1610.5,512.2522,1622.5,500.2522,1634.5,488.2522,1622.5,500.2522,1610.5" style="stroke:#181818;stroke-width:0.5;"/><rect fill="none" height="334.2031" style="stroke:#000000;stroke-width:1.5;" width="732.9531" x="61.731" y="1656.5"/><path d="M292.1489,1656.5 L292.1489,1665.7969 L282.1489,1675.7969 L61.731,1675.7969" fill="none" style="stroke:#000000;stroke-width:1.5;"/><text fill="#000000" font-family="sans-serif" font-size="14" lengthAdjust="spacing" textLength="220.418" x="64.731" y="1670.4951">Symbol Resolution &amp; Validation</text><rect fill="#F1F1F1" height="33.9688" rx="12.5" ry="12.5" style="stroke:#181818;stroke-width:0.5;" width="149.4922" x="425.5061" y="1692.7969"/><text fill="#000000" font-family="sans-serif" font-size="12" lengthAdjust="spacing" textLength="129.4922" x="435.5061" y="1713.9355">Strip unused symbols</text><rect fill="#F1F1F1" height="33.9688" rx="12.5" ry="12.5" style="stroke:#181818;stroke-width:0.5;" width="187.5547" x="406.4749" y="1746.7656"/><text fill="#000000" font-family="sans-serif" font-size="12" lengthAdjust="spacing" textLength="167.5547" x="416.4749" y="1767.9043">Validate version constraints</text><polygon fill="#F1F1F1" points="425.9646,1800.7344,574.5398,1800.7344,586.5398,1812.7344,574.5398,1824.7344,425.9646,1824.7344,413.9646,1812.7344,425.9646,1800.7344" style="stroke:#181818;stroke-width:0.5;"/><text fill="#000000" font-family="sans-serif" font-size="11" lengthAdjust="spacing" textLength="148.5752" x="425.9646" y="1816.5425">Symbol conflicts detected?</text><text fill="#000000" font-family="sans-serif" font-size="11" lengthAdjust="spacing" textLength="19.0083" x="394.9563" y="1810.1401">yes</text><text fill="#000000" font-family="sans-serif" font-size="11" lengthAdjust="spacing" textLength="13.7017" x="586.5398" y="1810.1401">no</text><polygon fill="#F1F1F1" points="234.0825,1834.7344,405.7749,1834.7344,417.7749,1846.7344,405.7749,1858.7344,234.0825,1858.7344,222.0825,1846.7344,234.0825,1834.7344" style="stroke:#181818;stroke-width:0.5;"/><text fill="#000000" font-family="sans-serif" font-size="11" lengthAdjust="spacing" textLength="171.6924" x="234.0825" y="1850.5425">Semver compatibility possible?</text><text fill="#000000" font-family="sans-serif" font-size="11" lengthAdjust="spacing" textLength="19.0083" x="203.0742" y="1844.1401">yes</text><text fill="#000000" font-family="sans-serif" font-size="11" lengthAdjust="spacing" textLength="13.7017" x="417.7749" y="1844.1401">no</text><rect fill="#F1F1F1" height="33.9688" rx="12.5" ry="12.5" style="stroke:#181818;stroke-width:0.5;" width="214.0273" x="91.731" y="1868.7344"/><text fill="#000000" font-family="sans-serif" font-size="12" lengthAdjust="spacing" textLength="194.0273" x="101.731" y="1889.873">Auto-resolve using semver rules</text><rect fill="#F1F1F1" height="33.9688" rx="12.5" ry="12.5" style="stroke:#181818;stroke-width:0.5;" width="230.709" x="325.7583" y="1868.7344"/><text fill="#000000" font-family="sans-serif" font-size="12" lengthAdjust="spacing" textLength="210.709" x="335.7583" y="1889.873">Error: Unresolvable symbol conflict</text><ellipse cx="441.1128" cy="1933.7031" fill="none" rx="11" ry="11" style="stroke:#222222;stroke-width:1;"/><ellipse cx="441.1128" cy="1933.7031" fill="#222222" rx="6" ry="6" style="stroke:#222222;stroke-width:1;"/><rect fill="#F1F1F1" height="33.9688" rx="12.5" ry="12.5" style="stroke:#181818;stroke-width:0.5;" width="188.2168" x="586.4673" y="1834.7344"/><text fill="#000000" font-family="sans-serif" font-size="12" lengthAdjust="spacing" textLength="168.2168" x="596.4673" y="1855.873">Symbol resolution complete</text><polygon fill="#F1F1F1" points="500.2522,1954.7031,512.2522,1966.7031,500.2522,1978.7031,488.2522,1966.7031,500.2522,1954.7031" style="stroke:#181818;stroke-width:0.5;"/><rect fill="none" height="190.2031" style="stroke:#000000;stroke-width:1.5;" width="231.6602" x="384.4221" y="2000.7031"/><path d="M525.6038,2000.7031 L525.6038,2010 L515.6038,2020 L384.4221,2020" fill="none" style="stroke:#000000;stroke-width:1.5;"/><text fill="#000000" font-family="sans-serif" font-size="14" lengthAdjust="spacing" textLength="131.1816" x="387.4221" y="2014.6982">Output Generation</text><rect fill="#F1F1F1" height="33.9688" rx="12.5" ry="12.5" style="stroke:#181818;stroke-width:0.5;" width="211.6602" x="394.4221" y="2037"/><text fill="#000000" font-family="sans-serif" font-size="12" lengthAdjust="spacing" textLength="191.6602" x="404.4221" y="2058.1387">Generate minimized automaton</text><rect fill="#F1F1F1" height="33.9688" rx="12.5" ry="12.5" style="stroke:#181818;stroke-width:0.5;" width="184.6777" x="407.9133" y="2090.9688"/><text fill="#000000" font-family="sans-serif" font-size="12" lengthAdjust="spacing" textLength="164.6777" x="417.9133" y="2112.1074">Apply isomorphic reduction</text><rect fill="#F1F1F1" height="33.9688" rx="12.5" ry="12.5" style="stroke:#181818;stroke-width:0.5;" width="186.1309" x="407.1868" y="2144.9375"/><text fill="#000000" font-family="sans-serif" font-size="12" lengthAdjust="spacing" textLength="166.1309" x="417.1868" y="2166.0762">Output linked binary/library</text><rect fill="#F1F1F1" height="33.9688" rx="12.5" ry="12.5" style="stroke:#181818;stroke-width:0.5;" width="109.9883" x="445.2581" y="2210.9063"/><text fill="#000000" font-family="sans-serif" font-size="12" lengthAdjust="spacing" textLength="89.9883" x="455.2581" y="2232.0449">Build complete</text><ellipse cx="500.2522" cy="2275.875" fill="none" rx="11" ry="11" style="stroke:#222222;stroke-width:1;"/><ellipse cx="500.2522" cy="2275.875" fill="#222222" rx="6" ry="6" style="stroke:#222222;stroke-width:1;"/><line style="stroke:#181818;stroke-width:1;" x1="500.2522" x2="500.2522" y1="67.2969" y2="87.2969"/><polygon fill="#181818" points="496.2522,77.2969,500.2522,87.2969,504.2522,77.2969,500.2522,81.2969" style="stroke:#181818;stroke-width:1;"/><line style="stroke:#181818;stroke-width:1;" x1="500.2522" x2="500.2522" y1="121.2656" y2="141.2656"/><polygon fill="#181818" points="496.2522,131.2656,500.2522,141.2656,504.2522,131.2656,500.2522,135.2656" style="stroke:#181818;stroke-width:1;"/><line style="stroke:#181818;stroke-width:1;" x1="401.1155" x2="401.1155" y1="263.2031" y2="283.2031"/><polygon fill="#181818" points="397.1155,273.2031,401.1155,283.2031,405.1155,273.2031,401.1155,277.2031" style="stroke:#181818;stroke-width:1;"/><line style="stroke:#181818;stroke-width:1;" x1="599.3889" x2="599.3889" y1="263.2031" y2="283.2031"/><polygon fill="#181818" points="595.3889,273.2031,599.3889,283.2031,603.3889,273.2031,599.3889,277.2031" style="stroke:#181818;stroke-width:1;"/><line style="stroke:#181818;stroke-width:1;" x1="599.3889" x2="599.3889" y1="317.1719" y2="337.1719"/><polygon fill="#181818" points="595.3889,327.1719,599.3889,337.1719,603.3889,327.1719,599.3889,331.1719" style="stroke:#181818;stroke-width:1;"/><line style="stroke:#181818;stroke-width:1;" x1="445.2834" x2="401.1155" y1="207.2344" y2="207.2344"/><line style="stroke:#181818;stroke-width:1;" x1="401.1155" x2="401.1155" y1="207.2344" y2="229.2344"/><polygon fill="#181818" points="397.1155,219.2344,401.1155,229.2344,405.1155,219.2344,401.1155,223.2344" style="stroke:#181818;stroke-width:1;"/><line style="stroke:#181818;stroke-width:1;" x1="555.2209" x2="599.3889" y1="207.2344" y2="207.2344"/><line style="stroke:#181818;stroke-width:1;" x1="599.3889" x2="599.3889" y1="207.2344" y2="229.2344"/><polygon fill="#181818" points="595.3889,219.2344,599.3889,229.2344,603.3889,219.2344,599.3889,223.2344" style="stroke:#181818;stroke-width:1;"/><line style="stroke:#181818;stroke-width:1;" x1="599.3889" x2="599.3889" y1="371.1406" y2="376.1406"/><line style="stroke:#181818;stroke-width:1;" x1="599.3889" x2="500.2522" y1="376.1406" y2="376.1406"/><line style="stroke:#181818;stroke-width:1;" x1="500.2522" x2="500.2522" y1="376.1406" y2="391.1406"/><polygon fill="#181818" points="496.2522,381.1406,500.2522,391.1406,504.2522,381.1406,500.2522,385.1406" style="stroke:#181818;stroke-width:1;"/><line style="stroke:#181818;stroke-width:1;" x1="500.2522" x2="500.2522" y1="175.2344" y2="195.2344"/><polygon fill="#181818" points="496.2522,185.2344,500.2522,195.2344,504.2522,185.2344,500.2522,189.2344" style="stroke:#181818;stroke-width:1;"/><line style="stroke:#181818;stroke-width:1;" x1="239.0635" x2="239.0635" y1="513.0781" y2="533.0781"/><polygon fill="#181818" points="235.0635,523.0781,239.0635,533.0781,243.0635,523.0781,239.0635,527.0781" style="stroke:#181818;stroke-width:1;"/><line style="stroke:#181818;stroke-width:1;" x1="239.0635" x2="239.0635" y1="672.3125" y2="700.5781"/><polygon fill="#181818" points="235.0635,690.5781,239.0635,700.5781,243.0635,690.5781,239.0635,694.5781" style="stroke:#181818;stroke-width:1;"/><line style="stroke:#181818;stroke-width:1;" x1="239.0635" x2="239.0635" y1="734.5469" y2="762.8125"/><polygon fill="#181818" points="235.0635,752.8125,239.0635,762.8125,243.0635,752.8125,239.0635,756.8125" style="stroke:#181818;stroke-width:1;"/><line style="stroke:#181818;stroke-width:1;" x1="239.0635" x2="239.0635" y1="796.7813" y2="822.0156"/><polygon fill="#181818" points="235.0635,812.0156,239.0635,822.0156,243.0635,812.0156,239.0635,816.0156" style="stroke:#181818;stroke-width:1;"/><line style="stroke:#181818;stroke-width:1;" x1="239.0635" x2="239.0635" y1="855.9844" y2="881.2188"/><polygon fill="#181818" points="235.0635,871.2188,239.0635,881.2188,243.0635,871.2188,239.0635,875.2188" style="stroke:#181818;stroke-width:1;"/><line style="stroke:#181818;stroke-width:1;" x1="239.0635" x2="239.0635" y1="567.0469" y2="638.3438"/><polygon fill="#181818" points="235.0635,628.3438,239.0635,638.3438,243.0635,628.3438,239.0635,632.3438" style="stroke:#181818;stroke-width:1;"/><line style="stroke:#181818;stroke-width:1;" x1="122.1982" x2="122.1982" y1="1006.9844" y2="1026.9844"/><polygon fill="#181818" points="118.1982,1016.9844,122.1982,1026.9844,126.1982,1016.9844,122.1982,1020.9844" style="stroke:#181818;stroke-width:1;"/><line style="stroke:#181818;stroke-width:1;" x1="342.2617" x2="342.2617" y1="1006.9844" y2="1026.9844"/><polygon fill="#181818" points="338.2617,1016.9844,342.2617,1026.9844,346.2617,1016.9844,342.2617,1020.9844" style="stroke:#181818;stroke-width:1;"/><line style="stroke:#181818;stroke-width:1;" x1="122.1982" x2="122.1982" y1="1074.9219" y2="1094.9219"/><polygon fill="#181818" points="118.1982,1084.9219,122.1982,1094.9219,126.1982,1084.9219,122.1982,1088.9219" style="stroke:#181818;stroke-width:1;"/><line style="stroke:#181818;stroke-width:1;" x1="342.2617" x2="342.2617" y1="1074.9219" y2="1094.9219"/><polygon fill="#181818" points="338.2617,1084.9219,342.2617,1094.9219,346.2617,1084.9219,342.2617,1088.9219" style="stroke:#181818;stroke-width:1;"/><line style="stroke:#181818;stroke-width:1;" x1="239.0635" x2="239.0635" y1="1100.9219" y2="1126.3906"/><polygon fill="#181818" points="235.0635,1116.3906,239.0635,1126.3906,243.0635,1116.3906,239.0635,1120.3906" style="stroke:#181818;stroke-width:1;"/><line style="stroke:#181818;stroke-width:1;" x1="239.0635" x2="239.0635" y1="915.1875" y2="1000.9844"/><polygon fill="#181818" points="235.0635,990.9844,239.0635,1000.9844,243.0635,990.9844,239.0635,994.9844" style="stroke:#181818;stroke-width:1;"/><line style="stroke:#181818;stroke-width:1;" x1="631.8047" x2="631.8047" y1="601.0469" y2="636.0469"/><polygon fill="#181818" points="627.8047,626.0469,631.8047,636.0469,635.8047,626.0469,631.8047,630.0469" style="stroke:#181818;stroke-width:1;"/><line style="stroke:#181818;stroke-width:1;" x1="706.1902" x2="631.8047" y1="545.0781" y2="545.0781"/><line style="stroke:#181818;stroke-width:1;" x1="631.8047" x2="631.8047" y1="545.0781" y2="567.0781"/><polygon fill="#181818" points="627.8047,557.0781,631.8047,567.0781,635.8047,557.0781,631.8047,561.0781" style="stroke:#181818;stroke-width:1;"/><line style="stroke:#181818;stroke-width:1;" x1="816.6917" x2="891.0771" y1="545.0781" y2="545.0781"/><line style="stroke:#181818;stroke-width:1;" x1="891.0771" x2="891.0771" y1="545.0781" y2="567.0781"/><polygon fill="#181818" points="887.0771,557.0781,891.0771,567.0781,895.0771,557.0781,891.0771,561.0781" style="stroke:#181818;stroke-width:1;"/><line style="stroke:#181818;stroke-width:1;" x1="891.0771" x2="891.0771" y1="601.0469" y2="664.0469"/><line style="stroke:#181818;stroke-width:1;" x1="891.0771" x2="761.4409" y1="664.0469" y2="664.0469"/><line style="stroke:#181818;stroke-width:1;" x1="761.4409" x2="761.4409" y1="664.0469" y2="692.3125"/><polygon fill="#181818" points="757.4409,682.3125,761.4409,692.3125,765.4409,682.3125,761.4409,686.3125" style="stroke:#181818;stroke-width:1;"/><line style="stroke:#181818;stroke-width:1;" x1="761.4409" x2="761.4409" y1="513.0781" y2="533.0781"/><polygon fill="#181818" points="757.4409,523.0781,761.4409,533.0781,765.4409,523.0781,761.4409,527.0781" style="stroke:#181818;stroke-width:1;"/><line style="stroke:#181818;stroke-width:1;" x1="655.6567" x2="655.6567" y1="943.9531" y2="973.4531"/><polygon fill="#181818" points="651.6567,963.4531,655.6567,973.4531,659.6567,963.4531,655.6567,967.4531" style="stroke:#181818;stroke-width:1;"/><line style="stroke:#181818;stroke-width:1;" x1="678.0081" x2="655.6567" y1="887.9844" y2="887.9844"/><line style="stroke:#181818;stroke-width:1;" x1="655.6567" x2="655.6567" y1="887.9844" y2="909.9844"/><polygon fill="#181818" points="651.6567,899.9844,655.6567,909.9844,659.6567,899.9844,655.6567,903.9844" style="stroke:#181818;stroke-width:1;"/><line style="stroke:#181818;stroke-width:1;" x1="844.8738" x2="867.2251" y1="887.9844" y2="887.9844"/><line style="stroke:#181818;stroke-width:1;" x1="867.2251" x2="867.2251" y1="887.9844" y2="909.9844"/><polygon fill="#181818" points="863.2251,899.9844,867.2251,909.9844,871.2251,899.9844,867.2251,903.9844" style="stroke:#181818;stroke-width:1;"/><line style="stroke:#181818;stroke-width:1;" x1="655.6567" x2="655.6567" y1="1007.4219" y2="1025.4219"/><line style="stroke:#181818;stroke-width:1;" x1="655.6567" x2="749.4409" y1="1025.4219" y2="1025.4219"/><polygon fill="#181818" points="739.4409,1021.4219,749.4409,1025.4219,739.4409,1029.4219,743.4409,1025.4219" style="stroke:#181818;stroke-width:1;"/><line style="stroke:#181818;stroke-width:1;" x1="867.2251" x2="867.2251" y1="943.9531" y2="1025.4219"/><line style="stroke:#181818;stroke-width:1;" x1="867.2251" x2="773.4409" y1="1025.4219" y2="1025.4219"/><polygon fill="#181818" points="783.4409,1021.4219,773.4409,1025.4219,783.4409,1029.4219,779.4409,1025.4219" style="stroke:#181818;stroke-width:1;"/><line style="stroke:#181818;stroke-width:1;" x1="761.4409" x2="761.4409" y1="850.75" y2="875.9844"/><polygon fill="#181818" points="757.4409,865.9844,761.4409,875.9844,765.4409,865.9844,761.4409,869.9844" style="stroke:#181818;stroke-width:1;"/><line style="stroke:#181818;stroke-width:1;" x1="761.4409" x2="761.4409" y1="1037.4219" y2="1072.4219"/><polygon fill="#181818" points="757.4409,1062.4219,761.4409,1072.4219,765.4409,1062.4219,761.4409,1066.4219" style="stroke:#181818;stroke-width:1;"/><line style="stroke:#181818;stroke-width:1;" x1="761.4409" x2="761.4409" y1="778.5469" y2="816.7813"/><polygon fill="#181818" points="757.4409,806.7813,761.4409,816.7813,765.4409,806.7813,761.4409,810.7813" style="stroke:#181818;stroke-width:1;"/><line style="stroke:#181818;stroke-width:1;" x1="835.6865" x2="987.9683" y1="1156.8594" y2="1156.8594"/><polygon fill="#181818" points="983.9683,963.9531,987.9683,953.9531,991.9683,963.9531,987.9683,959.9531" style="stroke:#181818;stroke-width:1;"/><line style="stroke:#181818;stroke-width:1;" x1="987.9683" x2="987.9683" y1="766.5469" y2="1156.8594"/><line style="stroke:#181818;stroke-width:1;" x1="987.9683" x2="773.4409" y1="766.5469" y2="766.5469"/><polygon fill="#181818" points="783.4409,762.5469,773.4409,766.5469,783.4409,770.5469,779.4409,766.5469" style="stroke:#181818;stroke-width:1;"/><line style="stroke:#181818;stroke-width:1;" x1="761.4409" x2="761.4409" y1="1106.3906" y2="1144.8594"/><polygon fill="#181818" points="757.4409,1134.8594,761.4409,1144.8594,765.4409,1134.8594,761.4409,1138.8594" style="stroke:#181818;stroke-width:1;"/><line style="stroke:#181818;stroke-width:1;" x1="761.4409" x2="761.4409" y1="726.2813" y2="754.5469"/><polygon fill="#181818" points="757.4409,744.5469,761.4409,754.5469,765.4409,744.5469,761.4409,748.5469" style="stroke:#181818;stroke-width:1;"/><line style="stroke:#181818;stroke-width:1;" x1="761.4409" x2="761.4409" y1="1168.8594" y2="1200.3594"/><polygon fill="#181818" points="757.4409,1190.3594,761.4409,1200.3594,765.4409,1190.3594,761.4409,1194.3594" style="stroke:#181818;stroke-width:1;"/><line style="stroke:#181818;stroke-width:1;" x1="417.8479" x2="239.0635" y1="457.1094" y2="457.1094"/><line style="stroke:#181818;stroke-width:1;" x1="239.0635" x2="239.0635" y1="457.1094" y2="479.1094"/><polygon fill="#181818" points="235.0635,469.1094,239.0635,479.1094,243.0635,469.1094,239.0635,473.1094" style="stroke:#181818;stroke-width:1;"/><line style="stroke:#181818;stroke-width:1;" x1="582.6565" x2="761.4409" y1="457.1094" y2="457.1094"/><line style="stroke:#181818;stroke-width:1;" x1="761.4409" x2="761.4409" y1="457.1094" y2="479.1094"/><polygon fill="#181818" points="757.4409,469.1094,761.4409,479.1094,765.4409,469.1094,761.4409,473.1094" style="stroke:#181818;stroke-width:1;"/><line style="stroke:#181818;stroke-width:1;" x1="239.0635" x2="239.0635" y1="1160.3594" y2="1252.3281"/><line style="stroke:#181818;stroke-width:1;" x1="239.0635" x2="488.2522" y1="1252.3281" y2="1252.3281"/><polygon fill="#181818" points="478.2522,1248.3281,488.2522,1252.3281,478.2522,1256.3281,482.2522,1252.3281" style="stroke:#181818;stroke-width:1;"/><line style="stroke:#181818;stroke-width:1;" x1="761.4409" x2="761.4409" y1="1234.3281" y2="1252.3281"/><line style="stroke:#181818;stroke-width:1;" x1="761.4409" x2="512.2522" y1="1252.3281" y2="1252.3281"/><polygon fill="#181818" points="522.2522,1248.3281,512.2522,1252.3281,522.2522,1256.3281,518.2522,1252.3281" style="stroke:#181818;stroke-width:1;"/><line style="stroke:#181818;stroke-width:1;" x1="500.2522" x2="500.2522" y1="425.1094" y2="445.1094"/><polygon fill="#181818" points="496.2522,435.1094,500.2522,445.1094,504.2522,435.1094,500.2522,439.1094" style="stroke:#181818;stroke-width:1;"/><line style="stroke:#181818;stroke-width:1;" x1="210.8311" x2="210.8311" y1="1412.5938" y2="1432.5938"/><polygon fill="#181818" points="206.8311,1422.5938,210.8311,1432.5938,214.8311,1422.5938,210.8311,1426.5938" style="stroke:#181818;stroke-width:1;"/><line style="stroke:#181818;stroke-width:1;" x1="210.8311" x2="210.8311" y1="1466.5625" y2="1486.5625"/><polygon fill="#181818" points="206.8311,1476.5625,210.8311,1486.5625,214.8311,1476.5625,210.8311,1480.5625" style="stroke:#181818;stroke-width:1;"/><line style="stroke:#181818;stroke-width:1;" x1="210.8311" x2="210.8311" y1="1520.5313" y2="1540.5313"/><polygon fill="#181818" points="206.8311,1530.5313,210.8311,1540.5313,214.8311,1530.5313,210.8311,1534.5313" style="stroke:#181818;stroke-width:1;"/><line style="stroke:#181818;stroke-width:1;" x1="448.2656" x2="448.2656" y1="1412.5938" y2="1432.5938"/><polygon fill="#181818" points="444.2656,1422.5938,448.2656,1432.5938,452.2656,1422.5938,448.2656,1426.5938" style="stroke:#181818;stroke-width:1;"/><line style="stroke:#181818;stroke-width:1;" x1="242.2188" x2="210.8311" y1="1356.625" y2="1356.625"/><line style="stroke:#181818;stroke-width:1;" x1="210.8311" x2="210.8311" y1="1356.625" y2="1378.625"/><polygon fill="#181818" points="206.8311,1368.625,210.8311,1378.625,214.8311,1368.625,210.8311,1372.625" style="stroke:#181818;stroke-width:1;"/><line style="stroke:#181818;stroke-width:1;" x1="416.8779" x2="448.2656" y1="1356.625" y2="1356.625"/><line style="stroke:#181818;stroke-width:1;" x1="448.2656" x2="448.2656" y1="1356.625" y2="1378.625"/><polygon fill="#181818" points="444.2656,1368.625,448.2656,1378.625,452.2656,1368.625,448.2656,1372.625" style="stroke:#181818;stroke-width:1;"/><line style="stroke:#181818;stroke-width:1;" x1="210.8311" x2="210.8311" y1="1574.5" y2="1592.5"/><line style="stroke:#181818;stroke-width:1;" x1="210.8311" x2="317.5483" y1="1592.5" y2="1592.5"/><polygon fill="#181818" points="307.5483,1588.5,317.5483,1592.5,307.5483,1596.5,311.5483,1592.5" style="stroke:#181818;stroke-width:1;"/><line style="stroke:#181818;stroke-width:1;" x1="448.2656" x2="448.2656" y1="1466.5625" y2="1592.5"/><line style="stroke:#181818;stroke-width:1;" x1="448.2656" x2="341.5483" y1="1592.5" y2="1592.5"/><polygon fill="#181818" points="351.5483,1588.5,341.5483,1592.5,351.5483,1596.5,347.5483,1592.5" style="stroke:#181818;stroke-width:1;"/><line style="stroke:#181818;stroke-width:1;" x1="430.7224" x2="329.5483" y1="1322.625" y2="1322.625"/><line style="stroke:#181818;stroke-width:1;" x1="329.5483" x2="329.5483" y1="1322.625" y2="1344.625"/><polygon fill="#181818" points="325.5483,1334.625,329.5483,1344.625,333.5483,1334.625,329.5483,1338.625" style="stroke:#181818;stroke-width:1;"/><line style="stroke:#181818;stroke-width:1;" x1="569.782" x2="670.9561" y1="1322.625" y2="1322.625"/><line style="stroke:#181818;stroke-width:1;" x1="670.9561" x2="670.9561" y1="1322.625" y2="1344.625"/><polygon fill="#181818" points="666.9561,1334.625,670.9561,1344.625,674.9561,1334.625,670.9561,1338.625" style="stroke:#181818;stroke-width:1;"/><line style="stroke:#181818;stroke-width:1;" x1="329.5483" x2="329.5483" y1="1604.5" y2="1622.5"/><line style="stroke:#181818;stroke-width:1;" x1="329.5483" x2="488.2522" y1="1622.5" y2="1622.5"/><polygon fill="#181818" points="478.2522,1618.5,488.2522,1622.5,478.2522,1626.5,482.2522,1622.5" style="stroke:#181818;stroke-width:1;"/><line style="stroke:#181818;stroke-width:1;" x1="670.9561" x2="670.9561" y1="1378.5938" y2="1622.5"/><line style="stroke:#181818;stroke-width:1;" x1="670.9561" x2="512.2522" y1="1622.5" y2="1622.5"/><polygon fill="#181818" points="522.2522,1618.5,512.2522,1622.5,522.2522,1626.5,518.2522,1622.5" style="stroke:#181818;stroke-width:1;"/><line style="stroke:#181818;stroke-width:1;" x1="500.2522" x2="500.2522" y1="1264.3281" y2="1310.625"/><polygon fill="#181818" points="496.2522,1300.625,500.2522,1310.625,504.2522,1300.625,500.2522,1304.625" style="stroke:#181818;stroke-width:1;"/><line style="stroke:#181818;stroke-width:1;" x1="500.2522" x2="500.2522" y1="1726.7656" y2="1746.7656"/><polygon fill="#181818" points="496.2522,1736.7656,500.2522,1746.7656,504.2522,1736.7656,500.2522,1740.7656" style="stroke:#181818;stroke-width:1;"/><line style="stroke:#181818;stroke-width:1;" x1="441.1128" x2="441.1128" y1="1902.7031" y2="1922.7031"/><polygon fill="#181818" points="437.1128,1912.7031,441.1128,1922.7031,445.1128,1912.7031,441.1128,1916.7031" style="stroke:#181818;stroke-width:1;"/><line style="stroke:#181818;stroke-width:1;" x1="222.0825" x2="198.7446" y1="1846.7344" y2="1846.7344"/><line style="stroke:#181818;stroke-width:1;" x1="198.7446" x2="198.7446" y1="1846.7344" y2="1868.7344"/><polygon fill="#181818" points="194.7446,1858.7344,198.7446,1868.7344,202.7446,1858.7344,198.7446,1862.7344" style="stroke:#181818;stroke-width:1;"/><line style="stroke:#181818;stroke-width:1;" x1="417.7749" x2="441.1128" y1="1846.7344" y2="1846.7344"/><line style="stroke:#181818;stroke-width:1;" x1="441.1128" x2="441.1128" y1="1846.7344" y2="1868.7344"/><polygon fill="#181818" points="437.1128,1858.7344,441.1128,1868.7344,445.1128,1858.7344,441.1128,1862.7344" style="stroke:#181818;stroke-width:1;"/><line style="stroke:#181818;stroke-width:1;" x1="198.7446" x2="198.7446" y1="1902.7031" y2="1966.7031"/><line style="stroke:#181818;stroke-width:1;" x1="198.7446" x2="488.2522" y1="1966.7031" y2="1966.7031"/><polygon fill="#181818" points="478.2522,1962.7031,488.2522,1966.7031,478.2522,1970.7031,482.2522,1966.7031" style="stroke:#181818;stroke-width:1;"/><line style="stroke:#181818;stroke-width:1;" x1="413.9646" x2="319.9287" y1="1812.7344" y2="1812.7344"/><line style="stroke:#181818;stroke-width:1;" x1="319.9287" x2="319.9287" y1="1812.7344" y2="1834.7344"/><polygon fill="#181818" points="315.9287,1824.7344,319.9287,1834.7344,323.9287,1824.7344,319.9287,1828.7344" style="stroke:#181818;stroke-width:1;"/><line style="stroke:#181818;stroke-width:1;" x1="586.5398" x2="680.5757" y1="1812.7344" y2="1812.7344"/><line style="stroke:#181818;stroke-width:1;" x1="680.5757" x2="680.5757" y1="1812.7344" y2="1834.7344"/><polygon fill="#181818" points="676.5757,1824.7344,680.5757,1834.7344,684.5757,1824.7344,680.5757,1828.7344" style="stroke:#181818;stroke-width:1;"/><line style="stroke:#181818;stroke-width:1;" x1="680.5757" x2="680.5757" y1="1868.7031" y2="1966.7031"/><line style="stroke:#181818;stroke-width:1;" x1="680.5757" x2="512.2522" y1="1966.7031" y2="1966.7031"/><polygon fill="#181818" points="522.2522,1962.7031,512.2522,1966.7031,522.2522,1970.7031,518.2522,1966.7031" style="stroke:#181818;stroke-width:1;"/><line style="stroke:#181818;stroke-width:1;" x1="500.2522" x2="500.2522" y1="1780.7344" y2="1800.7344"/><polygon fill="#181818" points="496.2522,1790.7344,500.2522,1800.7344,504.2522,1790.7344,500.2522,1794.7344" style="stroke:#181818;stroke-width:1;"/><line style="stroke:#181818;stroke-width:1;" x1="500.2522" x2="500.2522" y1="1634.5" y2="1692.7969"/><polygon fill="#181818" points="496.2522,1682.7969,500.2522,1692.7969,504.2522,1682.7969,500.2522,1686.7969" style="stroke:#181818;stroke-width:1;"/><line style="stroke:#181818;stroke-width:1;" x1="500.2522" x2="500.2522" y1="2070.9688" y2="2090.9688"/><polygon fill="#181818" points="496.2522,2080.9688,500.2522,2090.9688,504.2522,2080.9688,500.2522,2084.9688" style="stroke:#181818;stroke-width:1;"/><line style="stroke:#181818;stroke-width:1;" x1="500.2522" x2="500.2522" y1="2124.9375" y2="2144.9375"/><polygon fill="#181818" points="496.2522,2134.9375,500.2522,2144.9375,504.2522,2134.9375,500.2522,2138.9375" style="stroke:#181818;stroke-width:1;"/><line style="stroke:#181818;stroke-width:1;" x1="500.2522" x2="500.2522" y1="1978.7031" y2="2037"/><polygon fill="#181818" points="496.2522,2027,500.2522,2037,504.2522,2027,500.2522,2031" style="stroke:#181818;stroke-width:1;"/><line style="stroke:#181818;stroke-width:1;" x1="500.2522" x2="500.2522" y1="2178.9063" y2="2210.9063"/><polygon fill="#181818" points="496.2522,2200.9063,500.2522,2210.9063,504.2522,2200.9063,500.2522,2204.9063" style="stroke:#181818;stroke-width:1;"/><line style="stroke:#181818;stroke-width:1;" x1="500.2522" x2="500.2522" y1="2244.875" y2="2264.875"/><polygon fill="#181818" points="496.2522,2254.875,500.2522,2264.875,504.2522,2254.875,500.2522,2258.875" style="stroke:#181818;stroke-width:1;"/><!--SRC=[VLPDRnit4BtlhnZa4CW7kKYFgqEXE4vXj4eCoUuXA51GtD6AC9VS3hcAr2BN_87-m_wIpf2xAzcM2lX39cTctxptPjRHH8lm2VTT-DMu9v0VnjLmJrvZ22MqJ_MritBr5jBlwxYFC2UzDH5rx0YB8aH5iIXNMZaWxoDKXlZEqs5MbFUA0fwKQPGp6mnnLXHc0vFZnKvPK_rq1N6B3YRENnK0vIsHfn8MocuyDLWT2ytuEaJV5cYv_kI08IVi8oaTeRP-hInexm8V61U399GttcrCpQZvCOIgabvRxss-NM44T94EVCOfC6auyrfVpGfqbTaK1UTtVAvzqth7aR3nja8AVJChBiTqlhmUcnf0vhZflGe15hv2cEjeTYfYbM3SrSupmYFTNBib35nHxlchPS9DDDx16rOC5S67ZtEusJBSD_0t1t2LXy-_t7ww-tAxdEM___t-J__fVhvSdJcUhnxaqxTNZs3IT4Sa3VM-OFp3SrYNf_H12cyLQ_6k12u52-DCO_vIKkDtD_5FhRBgZoQV8btDndHGDGD_NkJ74kw2RporMwDXYLMd-qAFpcZXZ3bgs3Bv0Nqrbka8g7n84aCuEBqbx_fGM2iYWpJscWtK6sxHsMXEb5dYdnsxkUg95vMFkk3UX1XUUFR4jQdMqGsKQuMZiXbriZ63FpMo494c9mtKyP7QUsBNfauaEnipOIll8XAR24AtFkFG54FOeefz_QobXEUWZ2OPUJY2YysEE4Ua9dWh7cR2cxMt4DNQuco8MI9Vxn1s38QnSvXXY9JdScX-O93Z7_dl2ZUAEGJ1e6fkZ0b4ft4KExMU6akZZxhZzcKKcXFpGSjzZ8JCXenC1NpT6XxPoK8cxfGuxhIdzMQW7A59YhRYZjQqoBXmt0qd0_EH2ykEUV2rx8ENGoCC3o4Rg-e0IkOVNtChaG-75gVle2RLD3pe5ShUnUgi4CCUWUaKzzosQRWJPQSDMtbKueC9eimhdiQ0MvVk5QqDxyxKalMrqMF0YYlBw26RGZYN21wxX8saP6WkgBgGLSpVibwKjMZXAuyhwpCkuHu1bzCPukkYlUxFYvUhg5obg3hRLyxvzaobLRPfCcRkuIty9Y-Xb9MbugfaMkXS5qPZvtT57paQ-kMh9erHVWBVRApHCVoFU2aScrrlLOQmDjP4UHEnSrYEytftqK-fdwnE7COpaefGP_7IQFNhwT7bp2HsU0vrKA9VJPT9psbqv53GMsxp4kkVkzXs4Nv6XtHAT7-0WtHCj-Bk6XMpWkMyRUr1bipmKg3XfP2k-xgoAZXrpVDAXn-iMPEIVqCOG_c-CxOwmIUz_GS0]--></g></svg>